<svg width="27" height="28" viewBox="0 0 27 28" fill="none" xmlns="http://www.w3.org/2000/svg">
<path d="M2.04913 11.1821C1.69124 11.1821 1.34801 11.0399 1.09494 10.7868C0.841878 10.5338 0.699707 10.1905 0.699707 9.83265C0.699707 9.47476 0.841878 9.13154 1.09494 8.87847C1.34801 8.62541 1.69124 8.48323 2.04913 8.48323H12.8445C13.5603 8.48323 14.2467 8.19889 14.7528 7.69276C15.259 7.18663 15.5433 6.50017 15.5433 5.7844C15.5433 5.06862 15.259 4.38216 14.7528 3.87603C14.2467 3.3699 13.5603 3.08556 12.8445 3.08556C12.1023 3.08556 11.4276 3.38243 10.9418 3.88171C10.819 4.01277 10.6706 4.11724 10.5058 4.18866C10.341 4.26008 10.1633 4.29693 9.98371 4.29693C9.80411 4.29693 9.62641 4.26008 9.46162 4.18866C9.29682 4.11724 9.14843 4.01277 9.02562 3.88171C8.49935 3.35544 8.49935 2.49181 9.02562 1.96554C10.0107 0.993957 11.3601 0.386719 12.8445 0.386719C14.276 0.386719 15.649 0.955401 16.6612 1.96766C17.6735 2.97992 18.2422 4.35284 18.2422 5.7844C18.2422 7.21595 17.6735 8.58887 16.6612 9.60113C15.649 10.6134 14.276 11.1821 12.8445 11.1821H2.04913ZM22.2904 13.8809C22.6483 13.8809 22.9915 13.7387 23.2446 13.4857C23.4977 13.2326 23.6398 12.8894 23.6398 12.5315C23.6398 12.1736 23.4977 11.8304 23.2446 11.5773C22.9915 11.3242 22.6483 11.1821 22.2904 11.1821C21.9126 11.1821 21.5752 11.3305 21.3323 11.5734C21.2075 11.6985 21.0592 11.7977 20.896 11.8655C20.7327 11.9332 20.5577 11.968 20.381 11.968C20.2043 11.968 20.0293 11.9332 19.866 11.8655C19.7028 11.7977 19.5545 11.6985 19.4296 11.5734C18.9169 11.0471 18.9169 10.197 19.4296 9.67072C20.1583 8.94204 21.1704 8.48323 22.2904 8.48323C23.3641 8.48323 24.3938 8.90975 25.153 9.66894C25.9122 10.4281 26.3387 11.4578 26.3387 12.5315C26.3387 13.6052 25.9122 14.6348 25.153 15.394C24.3938 16.1532 23.3641 16.5798 22.2904 16.5798H3.39855C3.04066 16.5798 2.69743 16.4376 2.44436 16.1845C2.1913 15.9314 2.04913 15.5882 2.04913 15.2303C2.04913 14.8724 2.1913 14.5292 2.44436 14.2761C2.69743 14.0231 3.04066 13.8809 3.39855 13.8809H22.2904ZM20.941 21.9774H2.04913C1.69124 21.9774 1.34801 21.8353 1.09494 21.5822C0.841878 21.3291 0.699707 20.9859 0.699707 20.628C0.699707 20.2701 0.841878 19.9269 1.09494 19.6738C1.34801 19.4208 1.69124 19.2786 2.04913 19.2786H20.941C22.0147 19.2786 23.0444 19.7051 23.8035 20.4643C24.5627 21.2235 24.9893 22.2532 24.9893 23.3268C24.9893 24.4005 24.5627 25.4302 23.8035 26.1894C23.0444 26.9486 22.0147 27.3751 20.941 27.3751C19.821 27.3751 18.8089 26.9163 18.0802 26.1876C17.5674 25.6613 17.5674 24.8112 18.0802 24.2849C18.2051 24.1598 18.3534 24.0606 18.5166 23.9929C18.6798 23.9252 18.8548 23.8903 19.0316 23.8903C19.2083 23.8903 19.3833 23.9252 19.5465 23.9929C19.7098 24.0606 19.8581 24.1598 19.9829 24.2849C20.2258 24.5278 20.5632 24.6763 20.941 24.6763C21.2989 24.6763 21.6421 24.5341 21.8952 24.281C22.1482 24.028 22.2904 23.6847 22.2904 23.3268C22.2904 22.969 22.1482 22.6257 21.8952 22.3727C21.6421 22.1196 21.2989 21.9774 20.941 21.9774Z" fill="black"/>
</svg>
