<svg width="95" height="35" viewBox="0 0 95 35" fill="none" xmlns="http://www.w3.org/2000/svg">
<g filter="url(#filter0_d_702_2006)">
<path d="M67.6369 22.8744C67.9628 22.8744 68.2195 22.9681 68.4069 23.1555C68.6025 23.3348 68.7002 23.5751 68.7002 23.8766V25.6855H56.5755V24.6833C56.5755 24.4796 56.6163 24.2677 56.6978 24.0477C56.7874 23.8196 56.9259 23.6159 57.1133 23.4366L62.479 18.0587C62.9272 17.6024 63.3264 17.1665 63.6768 16.7509C64.0353 16.3354 64.3327 15.9239 64.569 15.5165C64.8053 15.109 64.9846 14.6975 65.1068 14.282C65.2372 13.8583 65.3024 13.4142 65.3024 12.9497C65.3024 12.526 65.2413 12.1553 65.1191 11.8375C64.9968 11.5116 64.8216 11.2386 64.5935 11.0186C64.3735 10.7986 64.1046 10.6356 63.7868 10.5297C63.4772 10.4156 63.1268 10.3586 62.7357 10.3586C62.3771 10.3586 62.0431 10.4115 61.7334 10.5175C61.4319 10.6152 61.163 10.7578 60.9267 10.9452C60.6904 11.1245 60.4908 11.3364 60.3278 11.5808C60.1649 11.8253 60.0427 12.0942 59.9612 12.3875C59.8227 12.7623 59.6434 13.0108 59.4234 13.1331C59.2034 13.2553 58.8856 13.2838 58.47 13.2186L56.8811 12.9375C57.0033 12.0901 57.2396 11.3486 57.59 10.713C57.9404 10.0693 58.3763 9.53559 58.8978 9.11188C59.4275 8.68002 60.0304 8.35816 60.7067 8.1463C61.3912 7.9263 62.1245 7.8163 62.9068 7.8163C63.7216 7.8163 64.4672 7.93852 65.1435 8.18297C65.8198 8.41927 66.3983 8.75743 66.8791 9.19744C67.3598 9.63744 67.7347 10.1671 68.0036 10.7864C68.2725 11.4056 68.4069 12.0942 68.4069 12.852C68.4069 13.5038 68.3091 14.1068 68.1136 14.6609C67.9261 15.215 67.6695 15.7446 67.3435 16.2498C67.0258 16.755 66.6509 17.2439 66.2191 17.7165C65.7872 18.1891 65.335 18.6698 64.8624 19.1587L60.8779 23.2288C61.2608 23.1148 61.6397 23.0292 62.0145 22.9722C62.3975 22.907 62.7601 22.8744 63.1023 22.8744H67.6369ZM82.4769 23.4244V25.6855H72.6989V23.4244H76.2801V13.1208C76.2801 12.7134 76.2923 12.2938 76.3167 11.8619L73.7745 13.9886C73.6278 14.1027 73.4811 14.1761 73.3345 14.2086C73.1959 14.2331 73.0615 14.2331 72.9311 14.2086C72.8089 14.1842 72.6989 14.1435 72.6011 14.0864C72.5033 14.0212 72.43 13.952 72.3811 13.8786L71.4278 12.5708L76.8179 7.98741H79.299V23.4244H82.4769ZM84.8499 11.9597C84.8499 11.3812 84.9559 10.8393 85.1677 10.3341C85.3877 9.82078 85.6851 9.3767 86.06 9.00188C86.4429 8.62706 86.8911 8.33372 87.4044 8.12186C87.9259 7.90185 88.4841 7.79185 89.0789 7.79185C89.6737 7.79185 90.2278 7.90185 90.7412 8.12186C91.2627 8.33372 91.7108 8.62706 92.0856 9.00188C92.4686 9.3767 92.7701 9.82078 92.9901 10.3341C93.2101 10.8393 93.3201 11.3812 93.3201 11.9597C93.3201 12.5219 93.2101 13.0557 92.9901 13.5609C92.7701 14.0661 92.4686 14.5101 92.0856 14.8931C91.7108 15.2679 91.2627 15.5653 90.7412 15.7853C90.2278 16.0054 89.6737 16.1154 89.0789 16.1154C88.4841 16.1154 87.9259 16.0054 87.4044 15.7853C86.8911 15.5653 86.4429 15.2679 86.06 14.8931C85.6851 14.5101 85.3877 14.0661 85.1677 13.5609C84.9559 13.0557 84.8499 12.5219 84.8499 11.9597ZM86.9522 11.9842C86.9522 12.2856 87.0052 12.5668 87.1111 12.8275C87.217 13.0883 87.3637 13.3164 87.5511 13.512C87.7467 13.6994 87.9707 13.8501 88.2233 13.9642C88.4841 14.0701 88.7693 14.1231 89.0789 14.1231C89.3804 14.1231 89.6574 14.0701 89.91 13.9642C90.1708 13.8501 90.3949 13.6994 90.5823 13.512C90.7778 13.3164 90.9286 13.0883 91.0345 12.8275C91.1404 12.5668 91.1934 12.2856 91.1934 11.9842C91.1934 11.6745 91.1404 11.3893 91.0345 11.1286C90.9286 10.8597 90.7778 10.6275 90.5823 10.4319C90.3949 10.2363 90.1708 10.0815 89.91 9.96745C89.6574 9.85338 89.3804 9.79634 89.0789 9.79634C88.7693 9.79634 88.4841 9.85338 88.2233 9.96745C87.9707 10.0815 87.7467 10.2363 87.5511 10.4319C87.3637 10.6275 87.217 10.8597 87.1111 11.1286C87.0052 11.3893 86.9522 11.6745 86.9522 11.9842Z" fill="black"/>
</g>
<path d="M10.724 23.7826L12.4173 29.043L17.6777 27.3497" stroke="black" stroke-width="2.31329" stroke-linecap="round" stroke-linejoin="round"/>
<path d="M7.42752 4.52433C6.11442 6.23437 5.80377 8.64638 6.49061 10.6314C7.09067 12.6443 8.75002 14.4221 10.8141 15.0451C12.8782 15.668 14.5375 17.4459 15.1376 19.4588C15.8244 21.4438 15.0924 23.8274 14.2007 25.5659L12.4171 29.0427" stroke="black" stroke-width="2.31329" stroke-linecap="round" stroke-linejoin="round"/>
<path d="M21.7762 23.7826L23.4695 29.043L28.7299 27.3497" stroke="black" stroke-width="2.31329" stroke-linecap="round" stroke-linejoin="round"/>
<path d="M18.4798 4.52433C17.1667 6.23437 16.856 8.64638 17.5429 10.6314C18.1429 12.6443 19.8023 14.4221 21.8663 15.0451C23.9304 15.668 25.5898 17.4459 26.1898 19.4588C26.8767 21.4438 26.1447 23.8274 25.2529 25.5659L23.4694 29.0427" stroke="black" stroke-width="2.31329" stroke-linecap="round" stroke-linejoin="round"/>
<defs>
<filter id="filter0_d_702_2006" x="55.5714" y="7.79199" width="38.7531" height="19.902" filterUnits="userSpaceOnUse" color-interpolation-filters="sRGB">
<feFlood flood-opacity="0" result="BackgroundImageFix"/>
<feColorMatrix in="SourceAlpha" type="matrix" values="0 0 0 0 0 0 0 0 0 0 0 0 0 0 0 0 0 0 127 0" result="hardAlpha"/>
<feOffset dy="1.00424"/>
<feGaussianBlur stdDeviation="0.502119"/>
<feComposite in2="hardAlpha" operator="out"/>
<feColorMatrix type="matrix" values="0 0 0 0 0 0 0 0 0 0 0 0 0 0 0 0 0 0 0.25 0"/>
<feBlend mode="normal" in2="BackgroundImageFix" result="effect1_dropShadow_702_2006"/>
<feBlend mode="normal" in="SourceGraphic" in2="effect1_dropShadow_702_2006" result="shape"/>
</filter>
</defs>
</svg>
