<svg width="26" height="26" viewBox="0 0 26 26" fill="none" xmlns="http://www.w3.org/2000/svg">
<path d="M9.2178 7.53224C9.2178 3.99805 5.90209 1.73616 5.76072 1.6462C5.5482 1.50255 5.29755 1.42579 5.04103 1.42579C4.78451 1.42579 4.53386 1.50255 4.32134 1.6462C4.17997 1.74901 0.864258 3.99805 0.864258 7.53224C0.864258 8.63999 1.30431 9.70237 2.08761 10.4857C2.8709 11.269 3.93328 11.709 5.04103 11.709C6.14878 11.709 7.21116 11.269 7.99446 10.4857C8.77775 9.70237 9.2178 8.63999 9.2178 7.53224ZM5.04103 9.13869C4.61497 9.13869 4.20637 8.96944 3.9051 8.66817C3.60383 8.3669 3.43458 7.9583 3.43458 7.53224C3.54034 6.31375 4.11655 5.18437 5.04103 4.38359C5.97102 5.18004 6.54847 6.31183 6.64748 7.53224C6.64748 7.9583 6.47823 8.3669 6.17696 8.66817C5.8757 8.96944 5.46709 9.13869 5.04103 9.13869ZM12.8291 10.6423C12.6166 10.4987 12.3659 10.4219 12.1094 10.4219C11.8529 10.4219 11.6023 10.4987 11.3897 10.6423C11.1712 10.7965 6.0049 14.3693 6.0049 19.7413C6.0049 21.3603 6.64806 22.913 7.79287 24.0578C8.93769 25.2026 10.4904 25.8458 12.1094 25.8458C13.7284 25.8458 15.2811 25.2026 16.426 24.0578C17.5708 22.913 18.2139 21.3603 18.2139 19.7413C18.2139 14.2793 13.0733 10.7837 12.8291 10.6423ZM12.1094 23.2755C11.6453 23.2755 11.1857 23.184 10.7569 23.0064C10.3282 22.8288 9.93855 22.5685 9.61037 22.2403C9.28219 21.9121 9.02186 21.5225 8.84425 21.0937C8.66664 20.665 8.57522 20.2054 8.57522 19.7413C8.57522 16.7725 10.9014 14.3821 12.1223 13.3155C13.3303 14.3307 15.6436 16.6954 15.6436 19.7413C15.6436 20.2054 15.5522 20.665 15.3746 21.0937C15.197 21.5225 14.9367 21.9121 14.6085 22.2403C14.2803 22.5685 13.8907 22.8288 13.4619 23.0064C13.0331 23.184 12.5735 23.2755 12.1094 23.2755ZM20.8614 0.36104C20.6488 0.21739 20.3982 0.140625 20.1417 0.140625C19.8852 0.140625 19.6345 0.21739 19.422 0.36104C19.2421 0.489556 15.001 3.41972 15.001 7.85353C15.001 9.21691 15.5426 10.5245 16.5067 11.4885C17.4707 12.4526 18.7783 12.9942 20.1417 12.9942C21.5051 12.9942 22.8126 12.4526 23.7767 11.4885C24.7407 10.5245 25.2823 9.21691 25.2823 7.85353C25.2823 3.36832 21.0413 0.476704 20.8614 0.36104ZM20.1417 10.4239C19.46 10.4239 18.8062 10.153 18.3242 9.67102C17.8422 9.18899 17.5714 8.53522 17.5714 7.85353C17.6594 6.92554 17.9322 6.02453 18.3736 5.2035C18.815 4.38248 19.4162 3.65802 20.1417 3.07273C20.8699 3.65552 21.4729 4.37937 21.9146 5.20089C22.3563 6.0224 22.6275 6.92465 22.712 7.85353C22.712 8.53522 22.4412 9.18899 21.9592 9.67102C21.4771 10.153 20.8234 10.4239 20.1417 10.4239Z" fill="black"/>
</svg>
